<svg width="68" height="73" viewBox="0 0 68 73" fill="none" xmlns="http://www.w3.org/2000/svg">
<path d="M5.63676 7.68825L9.05081 4.09353C10.9277 2.11744 12.5108 0.5 12.5691 0.5C12.6274 0.5 12.7227 0.629773 12.781 0.79022C12.8606 1.00847 12.0085 2.00655 9.34344 4.81318C7.39368 6.86596 5.72309 8.54593 5.63115 8.54593C5.33403 8.54593 1.76413 4.65392 1.87962 4.45572C2.10049 4.07938 2.39873 4.29291 4.00541 5.97642L5.63676 7.68825Z" stroke="#788EFF"/>
<path d="M29.8748 4.77897C22.7429 4.77897 22.6353 4.77425 22.6353 4.43684C22.6353 4.09943 22.7429 4.09471 29.8748 4.09471C37.0057 4.09471 37.1144 4.09943 37.1144 4.43684C37.1144 4.77425 37.0057 4.77897 29.8748 4.77897Z" stroke="#788EFF"/>
<path d="M46.0246 12.8355C45.3339 12.6007 45.2072 12.4568 45.3474 12.0699C45.4023 11.92 45.501 11.7985 45.5672 11.7985C45.8127 11.7985 49.4319 13.7899 50.3749 14.4435C52.0219 15.5867 55.1052 18.9844 56.5145 21.213C58.4284 24.2367 60.5509 28.656 62.1048 32.8548C62.5062 33.9366 62.9031 34.9772 62.9872 35.1647C63.1733 35.5836 64.7509 39.9616 64.9291 40.5574C64.9998 40.7934 65.4034 41.9106 65.825 43.0396C66.6614 45.2776 66.7163 46.0138 66.1154 46.8773C65.4976 47.7645 64.9224 47.9179 62.2102 47.9191H59.729L59.7268 52.2417C59.7245 57.0657 59.5934 58.0473 58.7211 59.7697C57.8039 61.5806 55.9012 63.2653 54.1163 63.8481C53.7586 63.9649 52.2574 64.1077 50.7807 64.1643L48.0966 64.2669L48.0529 68.1625C48.0102 71.9259 47.999 72.0569 47.684 72.0569C47.3667 72.0569 47.36 71.9566 47.4026 67.8192L47.4463 63.5827L50.3749 63.4895C52.8449 63.4104 53.438 63.3397 54.1623 63.0329C56.9215 61.8673 58.5686 59.6576 58.9834 56.5643C59.0215 56.2812 59.0585 54.0715 59.0653 51.653L59.0787 47.2561L61.995 47.2018C64.8058 47.1499 64.9258 47.1345 65.3216 46.7417C65.8586 46.2108 65.9808 45.5596 65.6994 44.7349C65.1758 43.2048 62.9547 37.0217 62.8146 36.7055C62.7316 36.5179 62.4143 35.6709 62.1104 34.8226C59.9376 28.7716 57.536 23.8261 55.0873 20.3576C52.7238 17.0095 48.859 13.8017 46.0246 12.8355Z" stroke="#788EFF"/>
<path d="M5.55379 24.0349L9.00708 20.4013C12.0769 17.1711 12.4873 16.796 12.7037 17.0248C12.9212 17.2525 12.5377 17.7126 9.25711 21.1658L5.565 25.0495L3.6556 23.0605C1.96371 21.2991 1.77198 21.0395 1.96819 20.7906C2.16777 20.537 2.36398 20.6891 3.87311 22.2712L5.55379 24.0349Z" stroke="#788EFF"/>
<path d="M29.8748 22.0695C22.7429 22.0695 22.6353 22.0647 22.6353 21.7273C22.6353 21.3899 22.7429 21.384 29.8748 21.384C37.0057 21.384 37.1144 21.3899 37.1144 21.7273C37.1144 22.0647 37.0057 22.0695 29.8748 22.0695Z" stroke="#788EFF"/>
<path d="M0.589117 44.0672L0.546512 38.5436L0.503906 33.0211L11.1643 33.1108V44.0672H0.589117Z" stroke="#788EFF"/>
<path d="M29.8748 38.8456C22.7429 38.8456 22.6353 38.8409 22.6353 38.5035C22.6353 38.166 22.7429 38.1613 29.8748 38.1613C37.0057 38.1613 37.1144 38.166 37.1144 38.5035C37.1144 38.8409 37.0057 38.8456 29.8748 38.8456Z" stroke="#788EFF"/>
<path d="M20.1944 63.6228C20.1944 58.9722 20.246 55.112 20.3088 55.046C20.3716 54.9799 20.5364 54.9492 20.6743 54.9764C20.8985 55.0224 20.9266 55.9862 20.9266 63.4989V71.9707L20.5599 72.0262L20.1944 72.0805V63.6228Z" stroke="#788EFF"/>
</svg>
