<svg width="74" height="71" viewBox="0 0 74 71" fill="none" xmlns="http://www.w3.org/2000/svg">
<path d="M28.1984 5.42657C29.3622 3.16851 31.7574 1.30745 34.2771 0.705684C35.448 0.425843 37.643 0.432669 38.7451 0.719335C40.4292 1.1573 41.8002 1.94108 43.0618 3.18557C44.4457 4.55064 45.0497 5.57559 45.5117 7.33995C46.3648 10.6002 45.4256 13.7877 42.9315 16.0924C40.8959 17.975 39.2048 18.645 36.464 18.6576C29.5484 18.686 25.0641 11.5091 28.1984 5.42657Z" stroke="#05D9DA"/>
<path d="M26.136 26.6102C28.4625 24.45 30.9881 23.3216 34.8684 22.7073C37.4125 22.3046 41.5698 23.1521 44.0662 24.582C48.1001 26.8935 50.6559 30.387 51.6068 34.8894C52.0246 36.8699 52.0269 37.6162 51.6126 37.6162C51.3507 37.6162 51.2821 37.4433 51.1983 36.5594C50.9492 33.9589 49.804 31.0354 48.2479 29.0287C43.2469 22.5833 34.063 21.4014 27.3988 26.3475C24.6207 28.4099 22.2627 32.3948 21.9438 35.5686C21.7623 37.3761 21.6971 37.6162 21.3875 37.6162C21.1245 37.6162 21.1071 37.4785 21.2083 36.2545C21.5167 32.5631 23.1333 29.3984 26.136 26.6102Z" stroke="#05D9DA"/>
<path d="M1.05515 35.6004C1.66966 34.3787 2.47621 33.6449 3.75644 33.1387C4.81786 32.7201 6.64277 32.7952 7.71234 33.3014C8.62945 33.7348 9.60826 34.6574 10.1006 35.5526C10.4486 36.184 10.4672 36.4502 10.5149 41.6192C10.5626 46.6154 10.6569 47.6369 10.9944 46.7792C11.1364 46.4141 12.5644 45.4494 13.3058 45.2151C14.8816 44.7168 16.9882 45.2321 18.0904 46.3856C18.6199 46.9396 22.7295 53.0392 23.2904 54.104C24.6498 56.6817 24.9024 58.3619 24.9035 64.8107C24.9035 69.7898 24.893 69.9696 24.5788 69.9696C24.2669 69.9696 24.2518 69.7568 24.1866 64.0679C24.1237 58.5587 24.0935 58.0855 23.7443 56.9468C23.2799 55.4338 22.641 54.1631 21.469 52.4181C20.9697 51.6764 19.9921 50.2113 19.2961 49.1613C17.4223 46.3356 16.5646 45.6712 14.7874 45.6712C13.6445 45.6712 12.8647 45.9613 11.9871 46.7144C10.5696 47.9316 10.2123 49.8768 11.098 51.5638C11.3366 52.0177 12.3666 53.7422 13.3873 55.3963C14.9422 57.9125 15.2052 58.4335 15.0038 58.5962C14.8712 58.7043 14.7338 58.7623 14.6978 58.727C14.3498 58.3778 10.4101 51.6958 10.1832 51.069C9.91667 50.333 9.88292 49.5139 9.87477 43.4757C9.8643 35.8177 9.88758 35.9656 8.51424 34.6756C6.72308 32.9942 3.91704 33.1273 2.20968 34.9747C1.10868 36.1658 1.09123 36.3364 1.0924 46.0239C1.09356 54.939 1.15525 55.981 1.79303 57.9194C2.49018 60.0352 3.34792 61.3491 6.26685 64.7698C7.81593 66.5853 9.41273 68.4407 9.81426 68.8923C10.4707 69.6283 10.5195 69.7386 10.2879 69.965C10.1157 70.1334 9.98999 70.1584 9.90969 70.0424C9.84335 69.9457 8.64924 68.5453 7.25611 66.9289C3.24899 62.2831 2.81605 61.7222 2.01765 60.1479C1.60449 59.3311 1.09472 58.0684 0.886391 57.3415C0.515124 56.0435 0.508141 55.8547 0.50465 46.3617L0.5 36.7016L1.05515 35.6004Z" stroke="#05D9DA"/>
<path d="M62.8053 35.8962C63.3453 34.7029 64.4719 33.621 65.6218 33.1888C67.9844 32.3026 70.4983 33.1956 71.8542 35.4025L72.4454 36.3648L72.4978 45.5325C72.5537 55.0903 72.499 56.1072 71.8263 58.1446C71.1524 60.1843 70.3575 61.4606 68.0857 64.1509C64.6628 68.2041 63.0544 70.0469 62.8868 70.1072C62.803 70.1368 62.6901 70.0492 62.6366 69.9116C62.54 69.667 63.9342 67.9299 67.2256 64.1919C69.1518 62.0044 70.2435 60.397 70.8533 58.8522C71.8193 56.403 71.8542 55.9594 71.8519 45.9784L71.8507 36.8733L71.455 36.0486C70.9522 35.002 70.3063 34.3707 69.2367 33.8804C67.1663 32.9305 64.6617 33.7849 63.5513 35.8211C63.1591 36.5389 63.1556 36.5924 63.0718 43.7237L62.988 50.904L62.4562 51.8948C62.164 52.4397 61.347 53.8014 60.6405 54.9219C59.9341 56.0435 59.3568 56.9888 59.3568 57.0241C59.3568 57.0605 59.1217 57.4621 58.8354 57.9171C58.2966 58.7737 58.0638 58.9193 57.8997 58.5018C57.8078 58.2686 58.2058 57.5724 60.7697 53.4738C62.0954 51.3568 62.3782 50.7027 62.3887 49.7483C62.398 48.7028 62.107 47.9498 61.3796 47.1421C60.1017 45.7247 58.2384 45.2765 56.6439 46.0034C55.5266 46.513 55.323 46.7383 53.3852 49.6152C48.8019 56.4189 48.7205 56.6851 48.7181 64.8107C48.717 69.8592 48.71 69.9696 48.3794 69.9696C48.0489 69.9696 48.0408 69.8592 48.0408 64.8733C48.0408 59.322 48.1828 57.9524 48.9846 55.7466C49.4944 54.3452 49.8296 53.7457 51.5568 51.152C54.9342 46.0762 54.9761 46.025 56.2587 45.4517C58.058 44.6474 60.1727 45.0228 61.5937 46.3981L62.3968 47.174V41.9878C62.3968 36.8574 62.4015 36.7903 62.8053 35.8962Z" stroke="#05D9DA"/>
</svg>
