<svg width="16" height="16" viewBox="0 0 16 16" fill="none" xmlns="http://www.w3.org/2000/svg">
<path d="M2.33331 2.49998C2.33331 2.45578 2.35087 2.41338 2.38213 2.38213C2.41338 2.35087 2.45578 2.33331 2.49998 2.33331H11.5C11.5442 2.33331 11.5866 2.35087 11.6178 2.38213C11.6491 2.41338 11.6666 2.45578 11.6666 2.49998V9.16665C11.6666 9.29925 11.7193 9.42643 11.8131 9.5202C11.9069 9.61397 12.034 9.66665 12.1666 9.66665C12.2993 9.66665 12.4264 9.61397 12.5202 9.5202C12.614 9.42643 12.6666 9.29925 12.6666 9.16665V2.49998C12.6666 2.19056 12.5437 1.89381 12.3249 1.67502C12.1061 1.45623 11.8094 1.33331 11.5 1.33331H2.49998C2.19056 1.33331 1.89381 1.45623 1.67502 1.67502C1.45623 1.89381 1.33331 2.19056 1.33331 2.49998V13.5C1.33331 14.144 1.85598 14.6666 2.49998 14.6666H7.16665C7.29925 14.6666 7.42643 14.614 7.5202 14.5202C7.61397 14.4264 7.66665 14.2993 7.66665 14.1666C7.66665 14.034 7.61397 13.9069 7.5202 13.8131C7.42643 13.7193 7.29925 13.6666 7.16665 13.6666H2.49998C2.45578 13.6666 2.41338 13.6491 2.38213 13.6178C2.35087 13.5866 2.33331 13.5442 2.33331 13.5V2.49998Z" fill="#3E4454"/>
<path d="M4.16669 4.66666C4.03408 4.66666 3.9069 4.71933 3.81313 4.8131C3.71937 4.90687 3.66669 5.03405 3.66669 5.16666C3.66669 5.29926 3.71937 5.42644 3.81313 5.52021C3.9069 5.61398 4.03408 5.66666 4.16669 5.66666H9.83335C9.96596 5.66666 10.0931 5.61398 10.1869 5.52021C10.2807 5.42644 10.3334 5.29926 10.3334 5.16666C10.3334 5.03405 10.2807 4.90687 10.1869 4.8131C10.0931 4.71933 9.96596 4.66666 9.83335 4.66666H4.16669ZM3.66669 7.83332C3.66669 7.70072 3.71937 7.57354 3.81313 7.47977C3.9069 7.386 4.03408 7.33332 4.16669 7.33332H7.16669C7.2993 7.33332 7.42647 7.386 7.52024 7.47977C7.61401 7.57354 7.66669 7.70072 7.66669 7.83332C7.66669 7.96593 7.61401 8.09311 7.52024 8.18688C7.42647 8.28064 7.2993 8.33332 7.16669 8.33332H4.16669C4.03408 8.33332 3.9069 8.28064 3.81313 8.18688C3.71937 8.09311 3.66669 7.96593 3.66669 7.83332ZM14.52 10.8533C14.5691 10.8075 14.6085 10.7523 14.6359 10.691C14.6632 10.6297 14.6779 10.5635 14.6791 10.4963C14.6803 10.4292 14.6679 10.3625 14.6428 10.3003C14.6176 10.238 14.5802 10.1814 14.5327 10.134C14.4852 10.0865 14.4287 10.0491 14.3664 10.0239C14.3042 9.99876 14.2375 9.98641 14.1703 9.9876C14.1032 9.98878 14.037 10.0035 13.9757 10.0308C13.9143 10.0581 13.8591 10.0975 13.8134 10.1467L10.5 13.46L9.18669 12.1467C9.14091 12.0975 9.08571 12.0581 9.02438 12.0308C8.96305 12.0035 8.89684 11.9888 8.8297 11.9876C8.76257 11.9864 8.69588 11.9988 8.63362 12.0239C8.57136 12.0491 8.51481 12.0865 8.46733 12.134C8.41985 12.1814 8.38242 12.238 8.35727 12.3003C8.33212 12.3625 8.31977 12.4292 8.32096 12.4963C8.32214 12.5635 8.33684 12.6297 8.36417 12.691C8.39149 12.7523 8.4309 12.8075 8.48002 12.8533L10.1467 14.52C10.2404 14.6136 10.3675 14.6662 10.5 14.6662C10.6325 14.6662 10.7596 14.6136 10.8534 14.52L14.52 10.8533Z" fill="#3E4454"/>
</svg>
