<svg width="16" height="16" viewBox="0 0 16 16" fill="none" xmlns="http://www.w3.org/2000/svg">
<g clip-path="url(#clip0_5_26)">
<path d="M15.7117 7.63048L13.9123 7.18033C13.7352 5.89205 13.1416 4.69706 12.222 3.77759C11.3024 2.85813 10.1073 2.26466 8.81904 2.08768L8.36952 0.288338C8.34888 0.205967 8.3013 0.132854 8.23435 0.080614C8.1674 0.0283735 8.08492 0 8 0C7.91508 0 7.8326 0.0283735 7.76565 0.080614C7.6987 0.132854 7.65112 0.205967 7.63048 0.288338L7.18096 2.08768C5.89266 2.26466 4.6976 2.85813 3.77802 3.77759C2.85844 4.69706 2.26482 5.89205 2.08768 7.18033L0.288338 7.63048C0.205967 7.65112 0.132854 7.6987 0.080614 7.76565C0.0283735 7.8326 0 7.91508 0 8C0 8.08492 0.0283735 8.1674 0.080614 8.23435C0.132854 8.3013 0.205967 8.34888 0.288338 8.36952L2.08768 8.81967C2.26482 10.108 2.85844 11.3029 3.77802 12.2224C4.6976 13.1419 5.89266 13.7353 7.18096 13.9123L7.63048 15.7117C7.65112 15.794 7.6987 15.8671 7.76565 15.9194C7.8326 15.9716 7.91508 16 8 16C8.08492 16 8.1674 15.9716 8.23435 15.9194C8.3013 15.8671 8.34888 15.794 8.36952 15.7117L8.81904 13.9123C10.1073 13.7353 11.3024 13.1419 12.222 12.2224C13.1416 11.3029 13.7352 10.108 13.9123 8.81967L15.7117 8.36952C15.794 8.34888 15.8671 8.3013 15.9194 8.23435C15.9716 8.1674 16 8.08492 16 8C16 7.91508 15.9716 7.8326 15.9194 7.76565C15.8671 7.6987 15.794 7.65112 15.7117 7.63048ZM13.1053 6.97906L9.84125 6.16193L9.02094 2.89466C10.0294 3.09519 10.9557 3.59028 11.6827 4.3173C12.4097 5.04433 12.9048 5.97063 13.1053 6.97906ZM9.10539 6.35938L8 7.46096L6.89779 6.35938L8 1.95181L9.10539 6.35938ZM6.97906 2.89466L6.16193 6.16193L2.89466 6.97906C3.09519 5.97063 3.59028 5.04433 4.3173 4.3173C5.04433 3.59028 5.97063 3.09519 6.97906 2.89466ZM6.35938 6.89843L7.46159 8L6.35938 9.10158L1.95181 8L6.35938 6.89843ZM2.89466 9.02094L6.16193 9.84125L6.97906 13.1085C5.97021 12.9078 5.0436 12.4122 4.31653 11.6846C3.58946 10.9569 3.09463 10.0299 2.89466 9.02094ZM6.89779 9.64062L8 8.53904L9.10221 9.64062L8 14.0482L6.89779 9.64062ZM9.02094 13.1053L9.84125 9.84125L13.1085 9.02412C12.9072 10.0324 12.4114 10.9583 11.6838 11.6848C10.9562 12.4112 10.0295 12.9056 9.02094 13.1053ZM9.64062 9.10158L8.53841 8L9.64062 6.89843L14.0482 8L9.64062 9.10158Z" fill="#3E4454"/>
</g>
<defs>
<clipPath id="clip0_5_26">
<rect width="16" height="16" fill="white"/>
</clipPath>
</defs>
</svg>
