<svg width="90" height="74" viewBox="0 0 90 74" fill="none" xmlns="http://www.w3.org/2000/svg">
<path fill-rule="evenodd" clip-rule="evenodd" d="M43.3696 0.732308C41.8325 1.14559 40.4255 2.2067 39.4928 3.65833L38.9888 4.44277H8.90966V5.26935H14.3748L14.1353 5.80559C14.003 6.10161 13.1958 7.94147 12.3395 9.89405C11.4832 11.8478 10.6303 13.781 10.4433 14.1897C10.2574 14.5985 9.63939 16.0114 9.0727 17.3286C8.50487 18.6459 7.82871 20.1864 7.56987 20.7511C7.25859 21.4365 6.9553 22.1241 6.66113 22.8164C6.42168 23.3879 5.55511 25.3792 4.73643 27.2418C3.78206 29.4153 2.82882 31.591 1.87901 33.7667L0.510742 36.9057L0.663547 38.3869C1.43548 45.908 8.02827 51.5358 15.6108 51.1475C22.7851 50.7798 28.6618 45.1543 29.2091 38.1296C29.306 36.8795 29.3037 36.8681 28.3893 34.8256C27.8853 33.6984 26.9765 31.624 26.3711 30.2145C25.7656 28.8062 25.1294 27.3568 24.9561 26.9936C24.7839 26.6304 24.1647 25.2175 23.5798 23.8547C22.996 22.4919 21.7201 19.5556 20.7452 17.3286C19.7715 15.1028 18.3918 11.9434 17.6814 10.3073C16.9699 8.67241 16.1945 6.90427 15.9585 6.37941C15.7214 5.85341 15.5287 5.39003 15.5287 5.34677C15.5287 5.3035 20.7714 5.26935 27.1795 5.26935H38.8315L38.6593 5.88871C38.4061 6.80408 38.6262 8.33427 39.1827 9.52175C40.0298 11.3275 41.9876 12.8508 43.8758 13.173L44.5657 13.2903V72.4255L38.8987 72.4688C33.3698 72.5109 33.2318 72.52 33.2318 72.8411C33.2318 73.1655 33.3686 73.169 44.8975 73.169C56.4514 73.169 56.562 73.1655 56.562 72.8388C56.562 72.5143 56.4514 72.5086 50.9361 72.5086H45.3102V13.2368L46.0468 13.1263C47.0753 12.9715 48.577 12.1836 49.4116 11.3582C49.8004 10.9745 50.358 10.173 50.651 9.57868C51.1413 8.58474 51.1847 8.36728 51.1847 6.88264V5.26935H62.7249C69.0726 5.26935 74.2651 5.33197 74.2651 5.41052C74.2651 5.48794 73.9242 6.32362 73.5057 7.2686C73.0873 8.21358 72.052 10.584 71.2048 12.5377C70.1877 14.8797 69.1672 17.2205 68.1444 19.559C66.2072 23.989 64.2767 28.4225 62.3543 32.8582C61.7055 34.3576 61.0225 35.9003 60.8378 36.2874C60.53 36.9318 60.5174 37.106 60.685 38.3641C60.9553 40.3941 61.4535 42.012 62.3224 43.6799C63.352 45.6564 65.913 48.2739 67.8605 49.3407C70.4066 50.7354 72.9333 51.3046 75.8375 51.1384C78.8078 50.9688 81.5147 49.9304 83.8875 48.0507C86.3743 46.0811 88.3595 42.8659 88.998 39.7748C89.5715 37.0013 89.8908 38.0772 85.6013 28.3155C84.623 26.0874 83.6492 23.857 82.6812 21.6243C81.9548 19.9438 81.2159 18.2702 81.0415 17.907C80.5318 16.8471 75.5889 5.45379 75.5889 5.33652C75.5889 5.30009 76.8227 5.26935 78.3312 5.26935H81.0723L81.0198 4.89705L80.9662 4.52589L65.8719 4.48376L50.7765 4.4405L50.4515 3.8052C49.6625 2.25908 47.9008 0.997585 46.0594 0.657165C44.8348 0.431736 44.4471 0.441983 43.3696 0.732308ZM43.3411 1.49512C42.6592 1.69095 41.2259 2.59722 40.7368 3.1403C40.5418 3.35662 40.1701 3.94296 39.9101 4.44277C39.4859 5.25568 39.4369 5.51641 39.4369 6.92135C39.4369 8.77146 39.779 9.62878 41.0082 10.8584C42.1575 12.0083 43.2715 12.4557 44.9796 12.4546C46.1996 12.4535 46.5063 12.3908 47.2965 11.9833C48.5508 11.3354 49.5017 10.3665 50.0547 9.16995C50.4447 8.3263 50.5211 7.94148 50.5199 6.8371C50.5176 5.17599 50.0125 4.04315 48.7389 2.83973C47.3113 1.49171 45.1928 0.964567 43.3411 1.49512ZM14.5218 6.69137C14.2117 7.40067 13.9016 8.11112 13.5914 8.82042C13.2733 9.54794 12.7693 10.7001 12.4717 11.381C11.0407 14.6599 9.60518 17.9366 8.1628 21.211C7.28368 23.2103 5.86752 26.4437 5.01691 28.3974C4.17771 30.3272 3.33395 32.2536 2.4879 34.18L1.50388 36.4104L14.8297 36.4525C22.1591 36.4764 28.184 36.4662 28.2194 36.432C28.2536 36.3979 27.5649 34.7436 26.6892 32.7557C25.8135 30.7678 24.7953 28.435 24.4281 27.572C24.0598 26.709 23.5718 25.5932 23.3426 25.0934C23.1135 24.5936 22.4589 23.1067 21.8888 21.7894C20.9573 19.641 20.0223 17.4926 19.0839 15.3465C18.1124 13.1206 17.1409 10.8948 16.1717 8.66672C15.5423 7.21965 14.9928 6.00142 14.9506 5.9593C14.9095 5.91717 14.7157 6.2462 14.5218 6.69137ZM74.5114 6.84393C73.8558 8.30125 71.3952 13.9244 70.2105 16.6683C69.6427 17.9856 69.0258 19.3985 68.8411 19.8072C68.3097 20.9788 67.409 23.0418 66.604 24.9283C66.198 25.8824 65.6701 27.087 65.4318 27.6039C65.1935 28.1219 64.4717 29.7568 63.8275 31.2381C63.1833 32.7204 62.4045 34.5079 62.0966 35.2127L61.5379 36.4924H74.9333C82.3014 36.4924 88.3298 36.4707 88.3298 36.4434C88.3298 36.3865 86.1805 31.4362 83.8693 26.1671C81.891 21.6539 79.9172 17.1385 77.9481 12.6197C77.3141 11.1658 76.606 9.5673 76.3746 9.06862C76.0598 8.3855 75.7531 7.69897 75.4533 7.00902L74.955 5.85911L74.5114 6.84393ZM1.36364 38.2343C1.81403 42.6177 4.48443 46.6674 8.26884 48.7065C10.0989 49.6925 11.685 50.1946 13.5082 50.3665C17.2048 50.716 20.6734 49.6845 23.5866 47.3699C26.2149 45.2818 28.2832 41.3402 28.4702 38.0624L28.517 37.2358L14.8844 37.1937L1.25303 37.1516L1.36364 38.2343ZM61.4273 38.3994C61.8891 43.4875 65.6872 48.1612 70.6848 49.7893C75.6015 51.3923 81.1076 50.0238 84.68 46.3122C86.876 44.0294 88.2283 41.1991 88.4439 38.4336L88.5442 37.1539H61.3145L61.4273 38.3994Z" fill="#D056CF" stroke="#D056CF"/>
</svg>
