<svg width="66" height="73" viewBox="0 0 66 73" fill="none" xmlns="http://www.w3.org/2000/svg">
<path d="M4.81198 5.74389C12.1341 2.88528 19.1468 1.30017 27.3255 0.656672C28.265 0.583547 30.681 0.513797 32.6935 0.501423C42.7825 0.444048 51.7505 2.12029 61.3339 5.85639C63.2791 6.61464 64.2209 7.37288 64.9059 8.73187L65.3129 9.53737V23.5762C65.3129 37.4473 65.3084 37.6408 64.9429 39.7221C64.4877 42.3152 63.9339 44.5269 63.2814 46.3483C62.6468 48.1224 61.4091 50.8989 60.7218 52.0891C60.4281 52.5987 60.1881 53.0555 60.1881 53.105C60.1881 53.3244 58.1959 56.2043 57.0153 57.6938C54.2035 61.2398 50.6507 64.329 46.665 66.6927C44.203 68.1529 41.2668 69.4264 36.2732 71.2016C35.1487 71.601 32.0062 71.7754 30.7629 71.5076C29.2998 71.1926 23.7771 69.0608 21.5595 67.9549C10.8627 62.6179 3.23791 52.4491 1.13578 40.7177C0.520278 37.2808 0.463103 35.6001 0.514675 22.4332L0.56288 9.70049L0.950792 8.83987C1.56293 7.48088 2.70088 6.56851 4.81198 5.74389Z" stroke="#4EC9EF"/>
</svg>
