<svg width="16" height="16" viewBox="0 0 16 16" fill="none" xmlns="http://www.w3.org/2000/svg">
<g clip-path="url(#clip0_5_10)">
<path d="M15.3105 16.002L9.1949 9.88635C8.70659 10.3024 8.14503 10.6243 7.51022 10.8522C6.87542 11.0801 6.23736 11.194 5.59605 11.194C4.03215 11.194 2.7085 10.6527 1.6251 9.56992C0.5417 8.48718 0 7.16385 0 5.59995C0 4.03606 0.541048 2.71208 1.62315 1.62803C2.70524 0.543981 4.02824 0.0013045 5.59214 2.34202e-06C7.15604 -0.00129982 8.48034 0.5404 9.56504 1.6251C10.6497 2.7098 11.1921 4.03378 11.1921 5.59702C11.1921 6.27545 11.072 6.93207 10.8317 7.56687C10.5915 8.20168 10.2757 8.74468 9.88439 9.19588L16 15.3105L15.3105 16.002ZM5.59702 10.2164C6.89267 10.2164 7.98649 9.77046 8.87847 8.87848C9.77045 7.98649 10.2164 6.89235 10.2164 5.59605C10.2164 4.29974 9.77045 3.20593 8.87847 2.3146C7.98649 1.42327 6.89267 0.977276 5.59702 0.976625C4.30137 0.975973 3.20723 1.42196 2.31459 2.3146C1.42196 3.20723 0.975971 4.30105 0.976622 5.59605C0.977273 6.89105 1.42326 7.98487 2.31459 8.8775C3.20592 9.77013 4.29974 10.2161 5.59605 10.2155" fill="#3E4454"/>
</g>
<defs>
<clipPath id="clip0_5_10">
<rect width="16" height="16" fill="white"/>
</clipPath>
</defs>
</svg>
