<svg width="16" height="16" viewBox="0 0 16 16" fill="none" xmlns="http://www.w3.org/2000/svg">
<g clip-path="url(#clip0_5_8)">
<path d="M11 16.5L5 14.3796L1.042 15.9245C0.786 16.0207 0.548333 15.9928 0.329 15.8407C0.109667 15.6885 0 15.4745 0 15.1985V2.84961C0 2.66921 0.0433334 2.50463 0.13 2.35586C0.216667 2.2071 0.342667 2.10377 0.508 2.04588L5 0.5L11 2.62041L14.958 1.07554C15.214 0.979279 15.4517 0.997455 15.671 1.13006C15.8903 1.26267 16 1.46058 16 1.72378V14.2281C16 14.4213 15.947 14.5889 15.841 14.731C15.7357 14.8737 15.5937 14.974 15.415 15.0319L11 16.5ZM10.5 15.2681V3.45444L5.5 1.69248V13.5062L10.5 15.2681ZM11.5 15.2681L15 14.1039V2.13877L11.5 3.45545V15.2681ZM1 14.8612L4.5 13.5062V1.69248L1 2.89606V14.8612Z" fill="#3E4454"/>
</g>
<defs>
<clipPath id="clip0_5_8">
<rect width="16" height="16" fill="white"/>
</clipPath>
</defs>
</svg>
